<svg width="48" height="56" viewBox="0 0 48 56" fill="none" xmlns="http://www.w3.org/2000/svg">
<path d="M39.6304 13.8439L36.5979 15.0895C35.8559 15.394 35.7089 16.3673 36.3132 16.8941C42.2777 22.0889 44.4842 30.1746 41.7769 37.651C38.8053 45.8515 30.8497 50.7944 22.0061 49.9667C13.4933 49.1601 6.34247 42.1597 5.37222 33.6795C4.35026 24.5382 9.42766 16.2237 17.7547 13.4633C17.8064 13.4429 17.8888 13.4319 17.971 13.4319C18.2602 13.4319 18.6824 13.5356 19.0031 13.6078L19.2507 13.6699C19.746 13.7838 20.2513 13.9495 20.7882 14.1245C21.8822 14.4967 22.9966 14.8691 24.2145 14.8486C25.8444 14.8172 27.5889 14.5588 29.4359 14.0939L29.5293 14.0624C30.0042 13.9485 30.4883 13.8143 30.9734 13.6588L31.5104 13.493C32.0877 13.3171 32.656 13.141 33.2235 12.9652L34.1003 12.7068L43.6036 9.89367L42.7166 9.10747C39.4558 6.21187 36.1533 4.01929 32.6145 2.41727C29.6013 1.03198 27.0012 0.421746 24.3909 0.504164C20.3771 0.658809 17.2095 2.5617 14.7018 6.31562L14.5882 6.48146C18.3545 5.4573 26.8876 4.09242 36.815 8.73529C36.815 8.73529 21.7389 5.89156 13.5977 9.5834C13.2161 9.75945 12.8446 9.95575 12.4834 10.1623C12.2874 10.2658 12.1017 10.3798 11.9159 10.503C3.74412 15.4153 -0.930403 24.7529 0.328095 34.2768C1.73165 44.9691 9.89334 53.2521 20.6459 54.9068C21.8019 55.0827 22.9467 55.1754 24.0925 55.1754C28.633 55.1754 33.0487 53.8308 36.8363 51.4113C40.6127 48.9916 43.7598 45.5061 45.7621 41.2356C50.0375 32.0794 47.9769 21.1074 40.7928 14.0596C40.4851 13.7642 40.0249 13.6827 39.6304 13.8439Z" fill="#27AE60"/>
<path d="M31.2526 40.9882L31.1602 42.6125C31.1602 42.6125 31.1492 42.6125 31.1371 42.6013C30.6547 42.2559 23.0327 36.7723 18.7786 33.1777C18.7324 33.1434 18.6871 33.097 18.6409 33.0627C17.5488 32.1294 16.4566 31.1616 15.5021 30.0561C13.2032 27.4291 12.6626 23.9271 14.019 20.9434C23.5262 23.6742 27.0899 32.9017 27.3201 33.5239C25.3889 24.653 18.1004 19.0424 15.3987 17.233L16.525 17.1636C19.1002 17.0136 22.8248 17.1405 25.4572 19.9748C27.2167 21.8871 28.6303 24.0649 29.5385 26.2883C31.5169 31.0922 31.5288 36.1963 31.2526 40.9882Z" fill="#27AE60"/>
</svg>
